<svg xmlns="http://www.w3.org/2000/svg" width="50" height="50" viewBox="0 0 50 50">
  <g fill="none" fill-rule="evenodd">
    <rect width="50" height="50" fill="#4099FF" opacity=".99" rx="25"/>
    <path fill="#FFFFFF" d="M25.1678125,21.3203132 L25.2176687,22.1853696 L24.3867303,22.0794443 C21.3621144,21.6733974 18.7197303,20.2963688 16.4761965,17.9836671 L15.3793578,16.8361433 L15.0968387,17.6835454 C14.4985631,19.5725461 14.8807947,21.5674721 16.1272024,22.9091922 C16.7919531,23.6506692 16.6423842,23.7565944 15.4956892,23.3152392 C15.0968387,23.1740054 14.7478446,23.0680801 14.714607,23.1210429 C14.5982757,23.2446223 14.9971261,24.8511556 15.3128827,25.4867073 C15.7449707,26.3694179 16.6257654,27.2344742 17.5896539,27.7464464 L18.4039736,28.1524933 L17.440085,28.1701475 C16.509434,28.1701475 16.4761965,28.1878017 16.5759091,28.5585401 C16.9082846,29.706064 18.2211672,30.9242047 19.6836189,31.453831 L20.7139824,31.8245695 L19.8165689,32.3895042 C18.4870675,33.201598 16.9249032,33.6606076 15.362739,33.695916 C14.6148944,33.7135701 14,33.784187 14,33.8371497 C14,34.0136917 16.0274897,35.0023277 17.2074223,35.3907203 C20.74722,36.5382441 24.9517684,36.0439261 28.1093344,34.0843087 C30.3528682,32.6896258 32.596402,29.9179145 33.6433844,27.2344742 C34.2084224,25.8044831 34.7734606,23.1916597 34.7734606,21.9382105 C34.7734606,21.1261168 34.8233169,21.0201916 35.7539679,20.0492099 C36.3023873,19.4842751 36.8175691,18.8663777 36.9172817,18.6898355 C37.0834694,18.3544055 37.0668507,18.3544055 36.2192935,18.6545271 C34.8066981,19.1841535 34.6072729,19.1135366 35.3052612,18.3190971 C35.820443,17.7541622 36.4353374,16.730218 36.4353374,16.4300963 C36.4353374,16.3771337 36.1860559,16.4654048 35.9035369,16.6242926 C35.604399,16.8008348 34.9396483,17.065648 34.4410852,17.2245359 L33.5436717,17.5246575 L32.729352,16.9420684 C32.2806452,16.6242926 31.6491322,16.2712084 31.3167568,16.1652832 C30.4691995,15.9181242 29.1729356,15.9534326 28.4084722,16.2359 C26.3311262,17.0303396 25.0182435,19.0782282 25.1678125,21.3203132 C25.1678125,21.3203132 25.0182435,19.0782282 25.1678125,21.3203132 L25.1678125,21.3203132 Z"/>
  </g>
</svg>
