<svg xmlns="http://www.w3.org/2000/svg" width="50" height="50" viewBox="0 0 50 50">
  <g fill="none" fill-rule="evenodd">
    <rect width="50" height="50" fill="#4D6D8F" rx="25"/>
    <path fill="#FFFFFF" d="M33.4311825,25.7519199 C33.4311825,25.7519199 36.9890699,20.7332109 37.3426161,19.0838578 C37.4603987,18.4948456 37.2012175,18.1648162 36.58849,18.1648162 L33.5019314,18.1648162 C32.7950374,18.1648162 32.5358562,18.4711303 32.3238079,18.9188431 C32.3238079,18.9188431 30.6550062,22.4746468 28.6245218,24.7152943 C27.9726988,25.4396522 27.6412803,25.6576542 27.2814828,25.6576542 C26.9912435,25.6576542 26.8573861,25.4157385 26.8573861,24.7623279 L26.8573861,19.0367249 C26.8573861,18.2356644 26.7631203,18 26.1034585,18 L21.1553991,18 C20.7783361,18 20.5426717,18.2191927 20.5426717,18.5182632 C20.5426717,19.272687 21.6972784,19.4430599 21.6972784,21.4871385 L21.6972784,25.7047871 C21.6972784,26.5530797 21.6501455,26.8829106 21.2495656,26.8829106 C20.1893239,26.8829106 17.6681614,23.2308566 16.2544727,19.0838578 C15.9716754,18.2356644 15.6653613,18 14.8642016,18 L11.7776429,18 C11.3299302,18 11,18.3062149 11,18.7538284 C11,19.578505 11.9660752,23.3956728 15.759627,28.5087469 C18.3043064,31.9487525 21.6501455,33.810154 24.6660545,33.810154 C26.5039391,33.810154 26.9516518,33.5039391 26.9516518,32.7262962 L26.9516518,30.0873511 C26.9516518,29.42759 27.2108331,29.1448919 27.5877969,29.1448919 C28.0118936,29.1448919 28.7604629,29.2811307 30.5095393,31.0062934 C32.5829891,32.9855766 32.7243877,33.810154 33.8554776,33.810154 L37.3190001,33.810154 C37.6724471,33.810154 38.002278,33.6452385 38.002278,33.0562263 C38.002278,32.2785834 36.9890699,30.8885108 35.4339826,29.2390584 C34.7978375,28.3908651 33.7611126,27.472022 33.4311825,27.0479253 C32.9600521,26.5530797 33.1013515,26.2701832 33.4311825,25.7519199"/>
  </g>
</svg>
